<svg id="logo" xmlns="http://www.w3.org/2000/svg" width="291" height="40" viewBox="0 0 291 40">
  <metadata><?xpacket begin="﻿" id="W5M0MpCehiHzreSzNTczkc9d"?>
<x:xmpmeta xmlns:x="adobe:ns:meta/" x:xmptk="Adobe XMP Core 5.6-c138 79.159824, 2016/09/14-01:09:01        ">
   <rdf:RDF xmlns:rdf="http://www.w3.org/1999/02/22-rdf-syntax-ns#">
      <rdf:Description rdf:about=""/>
   </rdf:RDF>
</x:xmpmeta>
                                                                                                    
                                                                                                    
                                                                                                    
                                                                                                    
                                                                                                    
                                                                                                    
                                                                                                    
                                                                                                    
                                                                                                    
                                                                                                    
                                                                                                    
                                                                                                    
                                                                                                    
                                                                                                    
                                                                                                    
                                                                                                    
                                                                                                    
                                                                                                    
                                                                                                    
                                                                                                    
                           
<?xpacket end="w"?></metadata>
<defs>
    <style>
      .cls-1 {
        fill: white;
      }

      .cls-1, .cls-2 {
        fill-rule: evenodd;
      }

      .cls-2 {
        fill: #bebebe;
      }
    </style>
  </defs>
  <path id="text" class="cls-1" d="M484.618,116.994v1.052H728v-1.052H484.618Zm82.573-6.669-2.173,1.637V114.3h-1.691v-7.487h1.691v3.275l4.588-3.275h2.9l-4.105,2.805,4.587,4.682h-2.173Zm155.013,0-2.173,1.637V114.3h-1.69v-7.487h1.69v3.275l4.829-3.275h2.656l-4.105,2.805L728,114.3h-2.173Zm-7,3.743h-1.691v-3.041h-6.036v3.041h-1.69v-7.486h1.69v3.04h6.036v-3.04H715.2v7.486Zm-56.259,0h-1.69v-3.041h-6.278v3.041h-1.69v-7.486h1.69v3.04h6.278v-3.04h1.69v7.486Zm-61.571,0h-1.689v-3.041h-6.037v3.041h-1.69v-7.486h1.69v3.04h6.037v-3.04h1.689v7.486Zm-45.634-7.486-5.07,6.084-0.484.468c-0.241.232-.482,0.467-0.482,0.467a0.9,0.9,0,0,1-.725.235,0.855,0.855,0,0,1-.482.232h-1.933v-1.4h1.691a0.888,0.888,0,0,0,.482-0.47c0.242-.234.484-0.467,0.725-0.7l-4.587-4.912h2.173l3.38,3.743,3.139-3.743h2.173Zm-14.488,0a2.38,2.38,0,0,1,2.657,2.574c0,1.4-.724,2.338-2.657,2.338h-5.07v2.574h-1.69v-7.486h6.76Zm0,0h0Zm-0.24,1.4h-4.83v2.107h4.83c0.965,0,1.206-.47,1.206-0.936A1.107,1.107,0,0,0,537.01,107.985Zm-45.635,1.637a2.135,2.135,0,0,1,2.414,2.34c0,1.4-.966,2.106-2.414,2.106h-6.761v-7.486h8.451v1.4H486.3v1.637h5.071Zm0,0h0Zm0,1.405H486.3v1.639h5.071a0.631,0.631,0,0,0,.724-0.7A0.822,0.822,0,0,0,491.375,111.027Zm25.111-4.445h0v7.486H514.8v-6.083h-4.588a0.872,0.872,0,0,0-.966.935v3.042c0,1.639-1.207,2.106-2.655,2.106H506.1v-1.4h0.484a0.778,0.778,0,0,0,.965-0.937v-3.042a2.2,2.2,0,0,1,2.414-2.105h6.52Zm-19.075,3.04h6.761v1.405h-6.761v0.7a0.779,0.779,0,0,0,.966.937h5.8v1.4h-6.037c-1.207,0-2.414-.467-2.414-2.106v-3.275a2.195,2.195,0,0,1,2.414-2.105h6.037v1.4h-5.8a0.872,0.872,0,0,0-.966.935v0.7Zm121.209-3.04c1.932,0,2.656.936,2.656,2.574,0,1.4-.724,2.338-2.656,2.338h-5.07v2.574h-1.69v-7.486h6.76Zm0,0h0Zm-0.241,1.4H613.55v2.107h4.829c0.966,0,1.208-.47,1.208-0.936A1.108,1.108,0,0,0,618.379,107.985Zm-93.442,2.574-1.69-2.341-1.449,2.341h3.139Zm0,0h0Zm-5.554,3.509h-1.931l4.829-7.251a1.587,1.587,0,0,1,2.173.232l4.829,7.019h-1.932l-1.448-2.106h-5.071Zm87.165-3.509-1.691-2.341-1.689,2.341h3.38Zm0,0h0ZM601,114.068h-1.933l4.588-7.251a1.875,1.875,0,0,1,2.415.232l4.829,7.019h-2.173l-1.207-2.106H602.2Zm37.666-1.4H644.7v-4.681h-5.071a0.872,0.872,0,0,0-.966.935v3.746Zm0,0h0Zm8.451,0v2.34h-1.448v-0.938h-8.21v0.938h-1.449v-2.34h0.966v-3.979c0-1.4,1.207-2.105,2.656-2.105h6.761v6.084h0.724Zm25.594,1.4h-1.931v-7.486h1.931v7.486Zm-5.312,0c1.932,0,2.9-.7,2.9-2.339,0-1.4-.725-2.573-2.9-2.573h-4.105v-2.574H661.6v7.486h5.795Zm0,0h0Zm0-1.4h-4.105v-2.107h4.105a1.108,1.108,0,0,1,1.208,1.17C668.6,112.2,668.36,112.666,667.394,112.666Zm-41.288,1.4c-1.208,0-2.415-.467-2.415-2.106v-3.275a2.195,2.195,0,0,1,2.415-2.105h5.552a2.195,2.195,0,0,1,2.415,2.105v3.275c0,1.639-1.207,2.106-2.415,2.106h-5.552Zm0,0h0Zm-0.725-2.339c0,0.937.483,0.937,1.207,0.937h4.83a0.778,0.778,0,0,0,.965-0.937V108.92a0.871,0.871,0,0,0-.965-0.935h-4.83a0.963,0.963,0,0,0-1.207.935v2.809Zm63.5-2.107a2.135,2.135,0,0,1,2.415,2.34c0,1.4-.966,2.106-2.415,2.106h-6.761v-7.486h8.451v1.4h-6.76v1.637h5.07Zm0,0h0Zm-0.241,1.405h-4.829v1.639h4.829c0.724,0,.965-0.234.965-0.7A0.869,0.869,0,0,0,688.642,111.027Zm-134.248.7a0.941,0.941,0,0,0,1.207.937H561.4v1.4H555.36c-1.449,0-2.656-.467-2.656-2.106v-3.275c0-1.4,1.207-2.105,2.656-2.105H561.4v1.4H555.6a1.072,1.072,0,0,0-1.207.935v2.809Zm22.213-4.912h-1.689V114.3h1.689v-7.487Zm123.383,3.742-1.69-2.341-1.69,2.341h3.38Zm0,0h0Zm-5.795,3.509h-1.931l4.829-7.251a1.918,1.918,0,0,1,2.414.232l4.588,7.019h-1.932l-1.207-2.106h-5.312ZM722.2,124.6l-2.173,1.64v2.338h-1.69v-7.488h1.69v3.276l4.829-3.276h2.656l-4.105,2.576L728,128.575h-2.173Zm-157.186,0L562.845,126v2.573H561.4v-7.721h1.449v3.509l4.829-3.509h2.656l-3.864,2.809,4.346,4.912h-2.173Zm32.838,3.744h-1.933l-6.277-5.615v5.615h-1.69v-7.487h1.932l6.277,5.615v-5.615h1.691v7.487ZM497.411,123.9h6.761v1.4h-6.761V126a0.872,0.872,0,0,0,.966.936h5.8v1.4h-6.037c-1.207,0-2.414-.468-2.414-2.1v-3.278a2.195,2.195,0,0,1,2.414-2.105h6.037v1.4h-5.8a0.873,0.873,0,0,0-.966.938v0.7Zm25.353,0.936-1.691-2.576-1.69,2.576h3.381Zm0,0h0Zm-5.795,3.509h-1.69l4.587-7.254a1.923,1.923,0,0,1,2.415.234l4.829,7.02h-2.173l-1.449-2.1h-5.07Zm89.579-3.509-1.691-2.576-1.689,2.576h3.38Zm0,0h0ZM601,128.341h-1.933l4.588-7.254a1.877,1.877,0,0,1,2.415.234l4.829,7.02h-2.173l-1.207-2.1H602.2Zm35.735,0v-7.487h6.761c2.173,0,3.38,1.17,3.38,2.809v2.1c0,1.4-1.207,2.574-3.38,2.574H636.73Zm0,0h0Zm1.689-1.4h5.072a1.45,1.45,0,0,0,1.689-1.405v-1.87a1.451,1.451,0,0,0-1.689-1.407h-5.072v4.682Zm61.571-2.106-1.69-2.576-1.449,2.576h3.139Zm0,0h0Zm-5.553,3.509h-1.932l4.829-7.254a1.589,1.589,0,0,1,2.173.234l4.83,7.02H702.4l-1.448-2.1h-5.071ZM486.3,123.9h4.829a0.824,0.824,0,0,0,.725-0.937,0.631,0.631,0,0,0-.725-0.7H486.3v1.64Zm0,0h0Zm-1.69-3.042h6.519c1.449,0,2.415.7,2.415,2.105a2.092,2.092,0,0,1-.725,1.638,1.962,1.962,0,0,1,.966,1.64c0,1.4-.966,2.1-2.414,2.1h-6.761v-7.487Zm0,0h0Zm6.761,4.444H486.3v1.64h5.071a0.63,0.63,0,0,0,.724-0.7A0.824,0.824,0,0,0,491.375,125.3Zm14.97-4.444v5.383c0,1.636,1.207,2.1,2.415,2.1h6.277v-1.4H509a0.872,0.872,0,0,1-.966-0.936v-5.148h-1.69ZM540.389,126a0.873,0.873,0,0,0,.967.936h4.587c0.483,0,.725-0.234.725-0.936v-5.148H548.6v5.383c0,1.636-1.449,2.1-2.656,2.1h-4.829c-1.207,0-2.415-.468-2.415-2.1v-5.383h1.69V126Zm16.9-2.106a2.134,2.134,0,0,1,2.414,2.341c0,1.4-.966,2.1-2.414,2.1h-6.52v-1.4h6.52a0.63,0.63,0,0,0,.724-0.7,0.825,0.825,0,0,0-.724-0.939H552.7c-1.449,0-2.415-.7-2.415-2.1a2.134,2.134,0,0,1,2.415-2.34h6.277v1.4H552.7a0.631,0.631,0,0,0-.724.7,0.823,0.823,0,0,0,.724.937h4.588Zm15.452-3.042h-2.173l4.347,4.913v2.574h1.689v-2.574l4.588-4.913h-2.173l-3.139,3.743Zm-45.151,0h6.76c1.932,0,2.657.936,2.657,2.34s-0.484,2.339-1.691,2.573l2.173,2.574h-2.173l-2.173-2.574h-3.863v2.574h-1.69v-7.487Zm0,0h0Zm6.519,1.4h-4.829v2.107h4.829a1.017,1.017,0,0,0,1.207-1.169C535.319,122.726,535.077,122.256,534.112,122.256Zm77.506-1.4h6.761c1.69,0,2.656.936,2.656,2.34s-0.483,2.339-1.932,2.573l2.415,2.574h-2.173l-2.173-2.574h-3.864v2.574h-1.69v-7.487Zm0,0h0Zm6.52,1.4h-4.83v2.107h4.83a1.017,1.017,0,0,0,1.207-1.169C619.345,122.726,619.1,122.256,618.138,122.256Zm7.968,6.085c-1.208,0-2.415-.468-2.415-2.1v-3.278a2.195,2.195,0,0,1,2.415-2.105h5.552a2.195,2.195,0,0,1,2.415,2.105v3.278c0,1.636-1.207,2.1-2.415,2.1h-5.552Zm0,0h0ZM625.381,126a0.964,0.964,0,0,0,1.207.936h4.83a0.872,0.872,0,0,0,.965-0.936v-2.808a0.873,0.873,0,0,0-.965-0.938h-4.83a0.964,0.964,0,0,0-1.207.938V126Zm90.3,2.339h-1.931l-6.036-5.615v5.615h-1.691v-7.487h1.932l6.036,5.615v-5.615h1.69v7.487ZM683.813,123.9h4.829a0.87,0.87,0,0,0,.965-0.937c0-.469-0.241-0.7-0.965-0.7h-4.829v1.64Zm0,0h0Zm-1.691-3.042h6.761c1.449,0,2.415.7,2.415,2.105a2.092,2.092,0,0,1-.725,1.638,1.962,1.962,0,0,1,.966,1.64,2.2,2.2,0,0,1-2.414,2.1h-7v-7.487Zm0,0h0Zm6.761,4.444h-5.07v1.64h5.07c0.724,0,.966-0.234.966-0.7A0.871,0.871,0,0,0,688.883,125.3Zm-29.215,3.043h-1.932l-6.278-5.615v5.615h-1.69v-7.487H651.7l6.278,5.615v-5.615h1.691v7.487Zm4.346-7.487h-2.173L666.187,126v2.339h1.931v-2.574l4.1-4.913h-1.931l-3.139,3.743Z" transform="translate(-437 -97)"/>
  <path id="lion" class="cls-1" d="M460.245,119.052c-0.245,0-.49,0-0.49.247a0.767,0.767,0,0,0,.245.493c0.245,0,.49,0,0.49-0.247A0.767,0.767,0,0,0,460.245,119.052Zm1.713-4.178a0.651,0.651,0,0,0-.734-0.738h-0.245c0.245,0,.245.247,0.245,0.491s-0.245.247-.49,0.247H460.49v-0.247h0v0.492c0.244,0,.244.246,0.489,0.246A0.956,0.956,0,0,0,461.958,114.874Zm0.49,4.918c0.245,0,0-.493-0.245-0.493h-0.734a0.9,0.9,0,0,0,.244.737C462.2,120.036,462.448,120.036,462.448,119.792Zm-0.245-2.953,0.49,0.248a0.958,0.958,0,0,0,.979-0.492,1.03,1.03,0,0,0-.735-0.983h-0.244v0.246a0.24,0.24,0,0,1,.244.246c0,0.491-.244.491-0.734,0.491h0v-0.246h0v0.49Zm-1.469-3.685A1.029,1.029,0,0,0,460,112.17h-0.245v0.246a0.241,0.241,0,0,1,.245.246,0.528,0.528,0,0,1-.49.492l-0.244-.246h0v0.246h0a0.486,0.486,0,0,0,.489.246A0.656,0.656,0,0,0,460.734,113.154Zm0.735,5.408c0.244,0.244.489,0.244,0.489,0,0.245-.248,0-0.493-0.245-0.493h-0.489C461.224,118.314,461.224,118.562,461.469,118.562Zm7.1,7.128c0-.247,0-0.247-0.245-0.247s-0.49,0-.49.247a0.529,0.529,0,0,0,.49.492C468.568,126.182,468.568,125.935,468.568,125.69Zm-2.2.245a0.851,0.851,0,0,0-.489-0.245,0.24,0.24,0,0,0-.245.245c0,0.247,0,.247.245,0.247S466.364,126.182,466.364,125.935Zm-2.2-.492a0.241,0.241,0,0,0-.246-0.246c-0.244,0-.244,0-0.244.246a0.241,0.241,0,0,0,.244.247Zm-0.246-7.129h0.246a0.654,0.654,0,0,0,.978-0.245c0.245-.49-0.244-0.737-0.489-0.982h-0.489l0.244,0.245s0.245,0.247,0,.247a0.527,0.527,0,0,1-.49.49c0-.246,0-0.246-0.244-0.246h0v0.246Zm-0.244,1.968a0.339,0.339,0,0,0,.49,0c0-.246,0-0.49-0.246-0.49h-0.489C463.427,120.036,463.427,120.282,463.672,120.282Zm-0.979.491H462.2v0.492h0.734A0.857,0.857,0,0,0,462.693,120.773Zm3.182,2.7c0.245,0,.489,0,0.489-0.247s-0.244-.244-0.489-0.244A0.246,0.246,0,0,0,465.875,123.478Zm-2.448-.737a0.24,0.24,0,0,0,.245.246c0.244,0,.49,0,0.49-0.246s-0.246-.249-0.49-0.249A0.241,0.241,0,0,0,463.427,122.741Zm-0.734-13.028a0.58,0.58,0,0,0-.49-0.737h-0.245c0.245,0,.245.246,0.245,0.49a1.067,1.067,0,0,1-.734.247v-0.247h0v0.493h0.489A0.469,0.469,0,0,0,462.693,109.713Zm8.322-5.655-0.489-.493c0-.242.489-0.242,0.734-0.242a0.9,0.9,0,0,1,.489.49C471.749,104.058,471.505,104.058,471.015,104.058Zm0,0h0Zm-0.734.738a2.452,2.452,0,0,0,.734-0.246,0.615,0.615,0,0,0-.734-0.492c-0.245,0-.734,0-0.734.246A0.615,0.615,0,0,0,470.281,104.8Zm0,0h0Zm9.057,2.458a6.246,6.246,0,0,0-1.958-2.458h-0.245a1.9,1.9,0,0,0-.489-1.231,4.734,4.734,0,0,0-3.182-1.474h-0.49a5.435,5.435,0,0,0-3.427,0c-1.714.248-2.2,1.474-2.693,2.705h-0.245a2.1,2.1,0,0,1-.734.738c-1.713,0-2.2.245-2.693,1.473-1.958-.244-2.2.247-2.692,1.231a3.151,3.151,0,0,0-2.693,1.228c-3.427,1.475-8.812,1.229-11.015,1.229h-0.734c-1.469,0-4.651,1.23-5.141,3.932a8.245,8.245,0,0,0,1.224,6.638,7.318,7.318,0,0,1,.979,1.966c1.224,3.933-.244,4.672-1.224,5.409h0c-1.223.49-4.651-.248-4.651-0.248h-0.244v0.248a0.9,0.9,0,0,0,.244.735,5.735,5.735,0,0,0,4.9.247,5.224,5.224,0,0,0,2.448-1.475h0a8.289,8.289,0,0,0,1.469,1.475,12.89,12.89,0,0,0,3.427.247,2.438,2.438,0,0,0,2.2-1.722,0.489,0.489,0,0,0,.244-0.491,1.628,1.628,0,0,0-.979-1.228,2.4,2.4,0,0,1-1.224-1.476,17.339,17.339,0,0,0,3.917-.246l0.245-.245a1.527,1.527,0,0,0,.734-0.983v-0.247a1.748,1.748,0,0,0-1.469-.739c-0.245,0-.245-0.243-0.489-0.243a5.391,5.391,0,0,1-.245-1.476H452.9a0.692,0.692,0,0,0,.49-0.491,2.463,2.463,0,0,1,.734-0.246h0.245a13.045,13.045,0,0,1,6.12.492c1.468,0.737,1.713,2.459,1.713,4.178V125.2c0.245,1.967.245,2.95,1.224,3.933a4.6,4.6,0,0,0,3.427,1.475,8.725,8.725,0,0,0,1.714-.244c0.734,0,1.468-.986,1.713-1.231h0.245v-0.983a1.9,1.9,0,0,0-1.224-1.474v-0.491c0-.492.245-1.476,0.245-1.721h1.958c0.735,0,.979,0,0.979-0.492a1.3,1.3,0,0,0,.734-0.491,0.762,0.762,0,0,0,.246-0.491v-0.495a0.4,0.4,0,0,0-.49-0.489l-0.245-.246h0a1.722,1.722,0,0,1-.489-0.984v-0.981a2.686,2.686,0,0,1,.244-1.478v-0.245c0-.49.245-0.982,0.245-1.965v-0.985a1.189,1.189,0,0,1,.245-0.983V113.4a3.484,3.484,0,0,1,.49-1.475,25.473,25.473,0,0,0,2.448.983h0l0.978-.983h0v-0.247h0.245c1.224-1.474,2.2-2.95,2.2-4.424h0Zm0,0h0Zm-25.457,16.224c0.489,0,.244.491,0,0.491h-0.245S453.636,123.478,453.881,123.478Zm0,0h0Zm24.478-16.471c0,0.247-.244.247-0.49,0.247s-0.489,0-.489-0.247A0.49,0.49,0,1,1,478.359,107.007Zm0,0h0Zm-1.224,1.231a0.528,0.528,0,0,1,.49-0.494,0.862,0.862,0,0,1,.244.494l-0.244.245A0.855,0.855,0,0,1,477.135,108.238Zm0,0h0Zm0.245,0.984a0.864,0.864,0,0,1-.245.491,0.4,0.4,0,0,1-.489-0.491c0-.246,0-0.246.489-0.246A0.24,0.24,0,0,1,477.38,109.222Zm0,0h0Zm-0.49-2.459-0.244.244a0.856,0.856,0,0,1-.49-0.244,0.853,0.853,0,0,1,.49-0.247Zm0,0h0ZM476.4,107.99c0,0.248-.245.248-0.489,0.248s-0.491,0-.491-0.248A0.611,0.611,0,0,1,476.4,107.99Zm0,0h0Zm-0.245-2.949a2.088,2.088,0,0,0-.735-0.737,2.042,2.042,0,0,1,.246,1.968,1.28,1.28,0,0,1-1.469.735c0.489-.244,1.958-1.228.489-2.457,0-.246-0.978,0-0.978.984,0,0.492.978,0.982,1.223,0.245a1.34,1.34,0,0,1-1.714.984,1.537,1.537,0,0,1-.489-2.459,1.893,1.893,0,0,1,2.448.492,1.109,1.109,0,0,0-.979-0.983,1.748,1.748,0,0,0-2.2,1.228,1.913,1.913,0,0,0,1.469,2.213c1.223,0.49,1.957-.491,2.2-0.491a1.93,1.93,0,0,1-1.714,1.227,9.217,9.217,0,0,1-1.958-.246,0.529,0.529,0,0,0-.49-0.49c-0.245,0-.49,0-0.245.246,0.245,0,.489.244,0.245,0.244s-0.49,0-.49.246l-0.244.248,0.244,0.245a0.24,0.24,0,0,1,.245.245,0.489,0.489,0,0,0,.245-0.49c-0.245,0,0-.248.244-0.248,0.491,0,.735.248,0.491,0.493s-0.245.493,0.244,0.493c0.245,0,.245-0.248.245-0.493s0.489-.245.489,0a0.4,0.4,0,0,0,.491.493c0.489,0,.489,0,0.489-0.493,0.245-.493.489-0.245,0.489-0.245,0.245,0.245.734,0.245,0.734,0-0.244-.494-0.244-0.494.246-0.738,0.245,0,.245.244,0.489,0s0-.493-0.244-0.493c0-.244.244-0.491,0.244-0.735,0.245,0,.245-0.246,0-0.493v-0.738Zm0,0h0Zm-0.979,3.935a0.4,0.4,0,0,1-.49.49,0.526,0.526,0,0,1-.489-0.49,0.852,0.852,0,0,1,.489-0.248C475.177,108.728,475.177,108.976,475.177,108.976Zm0,0h0Zm-1.468.49a0.528,0.528,0,0,1-.491.493,0.615,0.615,0,0,1-.734-0.493,1.074,1.074,0,0,1,.734-0.244A0.857,0.857,0,0,1,473.709,109.466Zm0,0h0Zm-3.918-2.459h-1.223c-0.245,0-.49,0-0.49-0.244a0.526,0.526,0,0,1,.49-0.491,0.4,0.4,0,0,1,.489.491,10.624,10.624,0,0,0,1.224.244,0.933,0.933,0,0,1,.49-0.491c0.244,0,.489.247,0.244,0.491v0.247h0c0,0.246-.244.246-0.489,0.246a2.475,2.475,0,0,1-.735.244c-0.244-.244.49-0.244,0.49-0.49S469.791,107.007,469.791,107.007Zm0,0h0Zm-0.734-.981c0-.247.49-0.247,0.734-0.247,0.49,0,.735,0,0.735.247a0.615,0.615,0,0,1-.735.49A0.825,0.825,0,0,1,469.057,106.026Zm0,0h0Zm2.2,2.95a0.532,0.532,0,1,1-.734.49A0.617,0.617,0,0,1,471.26,108.976Zm0,0h0Zm2.2-3.689a1.674,1.674,0,0,1-.735.985,4.348,4.348,0,0,1-.245-1.476S473.709,105.041,473.464,105.287Zm0,0h0Zm-2.2-2.457a0.851,0.851,0,0,0-.489.245c-0.49.248-.98,0.49-1.469,0.738a3.27,3.27,0,0,0-.734,1.228c0,0.246.244,0.246,0.489,0.246h0.49c0.489,0.247,1.224.492,1.224,0h0.489a1.323,1.323,0,0,0,0,.985,2.622,2.622,0,0,0,1.958,1.472,2.975,2.975,0,0,1-1.713-2.948,1.743,1.743,0,0,1,1.713-1.231v-0.49s0-.245.246,0a0.927,0.927,0,0,0,.489.49c0.245,0,.49-0.49.49-0.242,0.244,0,.244.49,0.489,0.49a0.848,0.848,0,0,0,.489-0.248,0.767,0.767,0,0,1,.246.493,0.24,0.24,0,0,0,.245.246h0.244a3.224,3.224,0,0,0-2.447-1.721H471.26v0.247Zm0,0h0Zm-1.713.245h0.244a0.24,0.24,0,0,1-.244.248c-0.245,0-.49,0-0.49-0.248h0.49Zm0,0h0Zm-0.979.49c0.244,0,.489,0,0.489.248a0.855,0.855,0,0,1-.489.245A0.247,0.247,0,0,1,468.568,103.565Zm0,0h0Zm-0.49.739a0.241,0.241,0,0,1,.245.246c0,0.246,0,.246-0.245.246s-0.245,0-.245-0.246A0.241,0.241,0,0,1,468.078,104.3Zm0,0h0Zm-0.245.983a0.853,0.853,0,0,1,.49.247c0,0.245-.245.245-0.49,0.245s-0.49,0-.49-0.245A0.853,0.853,0,0,1,467.833,105.287Zm0,0h0Zm-1.713.739,0.244-.247v0.247c-0.244.49,0,.981,0.735,1.228a1.318,1.318,0,0,1,1.224.984,1.348,1.348,0,0,1-1.224-.738c1.469,1.476,1.958,1.722,2.937,1.966-0.245-.244-0.245-0.738,0-0.49a5.584,5.584,0,0,0-.245-0.986,3.414,3.414,0,0,1,.49,1.723,7.129,7.129,0,0,1-3.427-1.969A1.719,1.719,0,0,1,466.12,106.026Zm0,0h0Zm3.671,4.423q0,0.369-.734,0a0.924,0.924,0,0,1-.489-0.49c0-.246.489-0.246,0.979-0.246C469.791,109.959,470.036,110.2,469.791,110.449Zm0,0h0Zm-5.875-3.442a0.7,0.7,0,0,1,.49-0.491,1.185,1.185,0,0,1,.979-0.244c-0.245,1.966,1.958,3.687,2.448,4.423a0.694,0.694,0,0,1,.245.736,0.856,0.856,0,0,1-.979.739,0.759,0.759,0,0,0-.49-0.245c-0.734-.984-2.693-2.7-2.693-4.918h0Zm0,0h0Zm-0.244.493a7.564,7.564,0,0,0,2.448,4.178,0.24,0.24,0,0,0,.244.247h0a1.3,1.3,0,0,0,.735.491h0a1.121,1.121,0,0,0,1.224-.985v-0.245c0.245-.245,0-0.491-0.245-0.737h0V110.2a8.043,8.043,0,0,1-1.469-1.476,4.43,4.43,0,0,1-.979-2.212v-0.244h0.245v0.244a3.04,3.04,0,0,0,.979,1.967,5.289,5.289,0,0,0,1.469,1.721h0a1.478,1.478,0,0,1,.245.982v0.245a1.373,1.373,0,0,1-1.469,1.231h0a1.267,1.267,0,0,1-.979-0.492h0a0.24,0.24,0,0,0-.245-0.245,7.575,7.575,0,0,1-2.448-4.181C463.427,107.5,463.427,107.5,463.672,107.5Zm0,0h0Zm-2.448.983h0a1.048,1.048,0,0,1,.734-0.739h0.735c-0.245,2.7,2.692,4.918,3.671,5.9,0.245,0,.245.248,0.245,0.492a1.055,1.055,0,0,1-.979.983,0.489,0.489,0,0,1-.49-0.245C463.916,113.892,460.979,111.431,461.224,108.483Zm0,0h0Zm-0.245.245h0c0,2.7,2.2,4.916,3.672,6.146l0.245,0.245a0.9,0.9,0,0,0,.734.246h0a1.159,1.159,0,0,0,1.224-1.229h0a0.9,0.9,0,0,0-.245-0.736h0l-0.489-.492c-1.224-.983-3.183-2.949-3.183-5.164h0.245c0,2.215,1.958,3.934,3.182,4.918a0.528,0.528,0,0,0,.49.492h0a1.481,1.481,0,0,1,.245.982h0a1.415,1.415,0,0,1-1.469,1.476h0a1.173,1.173,0,0,1-.979-0.247,0.24,0.24,0,0,0-.245-0.246c-1.224-1.227-3.672-3.441-3.672-6.143A0.242,0.242,0,0,1,460.979,108.728Zm0,0h0Zm-2.448,1.231a0.931,0.931,0,0,1,.49-0.493,0.9,0.9,0,0,1,.734-0.244c-0.245,3.44,3.917,6.636,5.63,7.865,0,0.245.245,0.492,0.245,0.736a1.056,1.056,0,0,1-.979.983h-0.245c-0.979-.492-5.875-4.179-6.119-8.357A0.76,0.76,0,0,0,458.531,109.959Zm0,0h0Zm-11.749,4.668s1.713,0.738,0,2.952C447.272,116.1,447.516,115.612,446.782,114.627Zm0,0h0Zm-5.63,14.748c-1.469.247-1.224-.245-1.224-0.245a5.347,5.347,0,0,0,3.672-1.474A2.831,2.831,0,0,1,441.152,129.375Zm0,0h0Zm3.917-2.211a2.328,2.328,0,0,0,1.713.492,17.146,17.146,0,0,1-3.182-7.374c-0.734-2.95,0-5.408-.49-5.9a2.687,2.687,0,0,0-1.713.244s0.979-1.965,2.448-1.719c1.468,0.492,2.937,2.457,1.713,6.884-0.245,1.965-.489,2.949,0,4.424l0.49-.985a4.161,4.161,0,0,0,1.713,4.672A2.994,2.994,0,0,1,445.069,127.164Zm0,0h0Zm7.343-4.423a0.4,0.4,0,0,1,.489.49c0,0.247,0,.247-0.489.247a0.241,0.241,0,0,1-.245-0.247A0.859,0.859,0,0,1,452.412,122.741Zm0,0h0Zm3.427-4.918a1.8,1.8,0,0,0-1.469.491c-0.489.492-1.224,0.492-1.958,0.985a2.3,2.3,0,0,0-1.714,1.229,3.943,3.943,0,0,0-1.223,3.933c-0.245-.492-0.49-1.474-0.735-0.492a3.675,3.675,0,0,0,.979,2.213,3.5,3.5,0,0,0,.49,1.474v0.736l-0.49-.245-0.489.493c-0.49,0-.245-1.228-0.49-1.476a5.836,5.836,0,0,0-.489-1.967,5.512,5.512,0,0,1,1.224-4.669c0.734-.736,1.713-0.983,2.447-1.722a1.52,1.52,0,0,0,.979-0.737,1.27,1.27,0,0,1,.98-0.49,8.994,8.994,0,0,1,3.671.244h-1.713Zm0,0h0Zm4.895,1.722c0,0.247-.489.247-0.979,0.247-0.245-.247-0.489-0.493-0.245-0.74,0-.246.245-0.246,0.735-0.246C460.734,119.052,460.979,119.3,460.734,119.545Zm0,0h0Zm-1.713-3.2a4.145,4.145,0,0,0-2.937-1.722c-0.98,0-5.386,0-5.63-.983-0.245-.49.244-0.49,0.734-0.736-1.469.246-3.182,0.246-1.224,0.984-0.734.244-2.692-.248-1.469-0.738a29.367,29.367,0,0,1,5.63-.984,12.057,12.057,0,0,0,2.938-.739,13.857,13.857,0,0,0,2.692,4.918,5.455,5.455,0,0,0,.979,1.23C460,117.823,460,117.332,459.021,116.349Zm0,0h0Zm1.958,2.7a1.076,1.076,0,0,1,1.224-.246c0.49,0.246.979,0.739,0.734,0.986,0,0.49-.734.49-1.224,0.244A1.314,1.314,0,0,1,460.979,119.052Zm0,0h0Zm0-1.229c0-.244.49-0.244,0.734,0a0.783,0.783,0,0,1,.735.739,0.746,0.746,0,0,1-.979,0A0.486,0.486,0,0,1,460.979,117.823Zm0,0h0Zm1.224,3.442a1.308,1.308,0,0,1-.49-0.737,1.179,1.179,0,0,1,.98-0.246,0.69,0.69,0,0,1,.489.736c0,0.247-.245.247-0.489,0.247a2.678,2.678,0,0,0,1.958,0c0.489-.247.245-1.229-0.735-1.966h0c-0.244-.247-1.223-0.985-1.958-1.72a6.575,6.575,0,0,1-1.468-1.23,10.518,10.518,0,0,1-2.693-5.163,0.489,0.489,0,0,1,.49-0.245,11.169,11.169,0,0,0,2.447,5.163,21.758,21.758,0,0,0,3.428,2.948h0.489a1.158,1.158,0,0,0,1.224-1.229h0a0.581,0.581,0,0,0-.49-0.736h0v-0.248a19.4,19.4,0,0,1-3.182-3.195,6.414,6.414,0,0,1-2.2-4.178v-0.244h0.245v0.244A6.082,6.082,0,0,0,462.2,113.4c1.224,1.227,2.448,2.458,3.182,3.195h0.245v0.244a0.839,0.839,0,0,1,.49.984h0a1.3,1.3,0,0,1-1.469,1.476h0c0.734,0.737.734,1.719,0.245,1.966a2.631,2.631,0,0,1-2.693,0h0Zm0,0h0Zm0.979-1.72c0-.246.49-0.246,0.734,0,0.49,0.247.735,0.491,0.49,0.737,0,0.246-.49.246-0.734,0A0.485,0.485,0,0,1,463.182,119.545Zm0,0h0Zm2.693,2.947a0.739,0.739,0,0,1,0,1.477A0.768,0.768,0,1,1,465.875,122.492Zm0,0h0Zm-1.469.249a0.784,0.784,0,0,1-.734.737,0.738,0.738,0,0,1,0-1.475A0.784,0.784,0,0,1,464.406,122.741Zm0,0h0Zm-1.958,3.194v-0.492a4.6,4.6,0,0,0,2.937,1.475,5.147,5.147,0,0,0,3.183-.245l0.734-.491h0v0.491h0a0.759,0.759,0,0,0-.49.245,7.9,7.9,0,0,1-3.672.246A3.087,3.087,0,0,1,462.448,125.935Zm0,0h0Zm0.489-.492a0.735,0.735,0,1,1,1.469,0A0.735,0.735,0,1,1,462.937,125.443Zm0,0h0Zm1.959,0.492a0.783,0.783,0,0,1,.734-0.738,0.738,0.738,0,0,1,0,1.476A0.782,0.782,0,0,1,464.9,125.935Zm0,0h0Zm2.447-.245a0.783,0.783,0,0,1,.735-0.738,0.768,0.768,0,1,1,0,1.476A0.784,0.784,0,0,1,467.343,125.69Zm0,0h0Zm1.959,1.228a0.488,0.488,0,0,0,.489.246c0,0.248.245,0.248,0.245,0.492a0.852,0.852,0,0,1-.245.491,0.764,0.764,0,0,0-.244.493v0.244H469.3c-0.245,0-.245,0-0.245.246h0c0,0.492-.489,0-0.734,0,0,0-.245.245-0.49,0.492-0.49.492-1.469,0.247-2.2,0a1.742,1.742,0,0,1-1.468-.738c0.978,0.246,2.692.738,3.426,0.491s0-.491-0.245-0.491-0.489-.244,0-0.244c0.49-.248,1.714-0.248,1.714-0.984a4.254,4.254,0,0,0-1.224.247,1.839,1.839,0,0,1-1.224.244c-0.245,0-.245,0-0.245-0.244h0.245a15.682,15.682,0,0,0,2.448-.985H469.3Zm0,0h0Zm0-2.949v0.492h0a1.89,1.89,0,0,0-.734.245,10.4,10.4,0,0,1-3.917,0,3.627,3.627,0,0,1-2.2-1.228h0v-0.491a4.5,4.5,0,0,0,2.2,1.474h3.672a2.658,2.658,0,0,0,.979-0.492h0Zm0,0h0Zm-1.959-.491a0.735,0.735,0,1,1,.735.738A0.651,0.651,0,0,1,467.343,123.478Zm0,0h0Zm2.2-2.213v-0.247h-0.49a0.241,0.241,0,0,1,.245.247c-0.245.245-.245,0.245-0.49,0h-0.244a0.932,0.932,0,0,0,.489.492h0.49a13.611,13.611,0,0,1-.245,2.212v-0.491h0v-0.986a10.21,10.21,0,0,1-2.448-.243c-0.979-.492-1.469-0.984-1.224-1.967a0.526,0.526,0,0,1,.49-0.49,0.848,0.848,0,0,1,1.223-.247,4.017,4.017,0,0,0,2.448.247l0.245-.247v0.247a1.885,1.885,0,0,0,.735-0.247c0.244,0,.734-0.246.978-0.246h0a5.055,5.055,0,0,1-1.468.493,1.7,1.7,0,0,0-.49.981A0.767,0.767,0,0,1,469.547,121.265Zm0,0h0ZM470.526,122h-0.245a0.864,0.864,0,0,1,.245-0.493,0.528,0.528,0,0,1,.489.493c0,0.246,0,.489-0.244.489h-0.245V122Zm0,0h0Zm-0.49-.738h0a5.176,5.176,0,0,0,1.713-.737v0.245A4.206,4.206,0,0,1,470.036,121.265Zm0,0h0Zm0.735-.737c0-.246,0-0.246-0.245-0.246a0.49,0.49,0,1,1,.979,0c0,0.246,0,.491-0.245.491h-0.489C471.015,120.773,471.015,120.528,470.771,120.528Zm0,0h0Zm1.469,3.195c-0.245.246-.245,0.246-0.491,0l-0.244-.245s-0.245-.247,0-0.247c0-.244.244-0.244,0.244,0L472,123.478A0.24,0.24,0,0,1,472.24,123.723Zm0,0h0Zm-1.959-.492c-0.245-.244-0.49-0.49-0.49-0.49,0.245,0,.245.246,0.49,0.246A3.67,3.67,0,0,0,472,121.51c0,0.247,0,.493.245,0.493A11.043,11.043,0,0,1,470.281,123.231Zm0,0h0Zm1.959-5.9a0.905,0.905,0,0,0-.245.737,2.6,2.6,0,0,1-1.224.493,5.965,5.965,0,0,1-2.938,0,1.151,1.151,0,0,1-.49-1.23,1.054,1.054,0,0,1,.98-0.983,6.93,6.93,0,0,0,3.182,0,1.851,1.851,0,0,1,.979-0.245A1.847,1.847,0,0,0,472.24,117.332Zm0,0h0Zm0.244-1.72c-0.244.246-.735,0.246-0.979,0.492h-3.182a1.313,1.313,0,0,0-1.224,1.228,1.86,1.86,0,0,0,.244,1.23c0,0.244.245,0.244,0.49,0.244a6.6,6.6,0,0,0,3.182,0,3.428,3.428,0,0,0,.98-0.492v0.492a7.113,7.113,0,0,1-1.959.493,6.091,6.091,0,0,1-2.448-.247c-0.245,0-.245-0.246-0.489-0.246a3.125,3.125,0,0,1-.245-1.474,1.29,1.29,0,0,1,1.469-1.474h3.182a1.854,1.854,0,0,1,.979-0.493v0.247Zm0,0h0Zm0-1.229a8.588,8.588,0,0,1-2.937.491H469.3a0.725,0.725,0,0,1-.49-0.982,0.651,0.651,0,0,1,.735-0.738,12.871,12.871,0,0,0,2.937-.246v1.475Zm0,0h0Zm0.245-1.721H472.24a2.2,2.2,0,0,1-1.225.246h-1.468a1.055,1.055,0,0,0-.979.984c0,0.735.244,1.227,0.734,1.227h1.713a3.456,3.456,0,0,0,.98-0.492h0.489v0.247H472.24c-0.245.245-.245,0.245-1.469,0.491a3.05,3.05,0,0,1-2.2-.246,1.52,1.52,0,0,1-.245-1.227V113.4h0a0.24,0.24,0,0,1,.245-0.246c0-.492.489-0.492,0.979-0.492a10.1,10.1,0,0,0,2.448-.246h0.734v0.246Zm0,0h0Zm0.489-1.721c-0.244-.492-0.734-0.982-0.978,0a0.894,0.894,0,0,0-1.225-.492c-0.244,0-.244.492,0.49,0.492l1.469,0.49a12.4,12.4,0,0,1-2.2-.49c-0.735-.246-0.245-0.737.244-0.737a19.77,19.77,0,0,0,3.672-.245,4.764,4.764,0,0,0,2.448-3.687,5.615,5.615,0,0,1-.245-0.985l0.245,0.247a0.692,0.692,0,0,0,.49.738c-0.49.491-.49,0.735,0,1.228-0.979,0-.735.738-0.49,1.228-0.245-.245-0.979,0-0.734.985-0.489-.247-0.98-0.247-0.98.736-0.734-.736-0.978-0.49-1.223.246C473.953,110.2,473.464,110.2,473.218,110.941Zm0,0h0Zm3.183-.737a0.86,0.86,0,0,1-.245.491,0.528,0.528,0,0,1-.489-0.491c0-.245.245-0.245,0.489-0.245A0.24,0.24,0,0,1,476.4,110.2Zm0,0h0Zm-1.714,1.474a0.467,0.467,0,0,1-.734-0.247,0.795,0.795,0,0,1,1.468,0A1.064,1.064,0,0,1,474.687,111.678Zm0,0h0Zm1.469,0.738v0.246h-0.244v-0.246h0.244Zm0,0h0Zm0.49-.491h0Zm0,0h0Zm-0.979.491h-0.49a15.424,15.424,0,0,0,3.672-5.653v0.491A11.434,11.434,0,0,1,475.667,112.416Zm0,0h0Zm1.713-1.23h-0.245v-0.245h0.245v0.245Zm0,0h0Zm0.735-.982h-0.49v-0.245h0.244l0.246,0.245h0Zm0,0h0Zm0.244-.738h0Zm0,0h0Zm0.49-.738h-0.49a0.24,0.24,0,0,1,.245-0.245h0.245v0.245h0Zm0,0h0Zm0.244-.738v0.248h-0.244V107.99h0.244Zm0,0h0Zm-7.1-4.667a0.341,0.341,0,0,0,.489,0c0.245-.248,0-0.248-0.244-0.493-0.245,0-.735,0-0.735.245A0.849,0.849,0,0,0,472,103.323Zm-7.1,9.585a0.486,0.486,0,0,0-.49-0.738h-0.244a0.492,0.492,0,0,1,.244.492,0.468,0.468,0,0,1-.734.246h-0.245l0.245,0.246,0.244,0.246A0.62,0.62,0,0,0,464.9,112.908Zm3.916-2.7a0.24,0.24,0,0,0,.245.245h0.49a0.759,0.759,0,0,0-.245-0.49C469.057,109.959,468.812,109.959,468.812,110.2Zm9.057-2.95c0.246,0,.246,0,0.246-0.247s0-.244-0.246-0.244-0.244,0-.244.244S477.625,107.254,477.869,107.254Zm-0.734,1.722a0.527,0.527,0,0,0-.489.49h0.489v-0.49Zm0.734-.738c0-.248-0.244-0.248-0.489-0.248v0.493C477.625,108.483,477.869,108.483,477.869,108.238Zm-13.218,5.9h0v0.247c0.245,0,.245,0,0.245.244h0.489a0.73,0.73,0,0,0,.979-0.244,1.027,1.027,0,0,0-.734-0.983h-0.245v0.244a0.242,0.242,0,0,1,.245.248,0.829,0.829,0,0,1-.734.491v-0.247h-0.245Zm3.917,9.342a0.241,0.241,0,0,0-.245-0.247c-0.245,0-.49,0-0.49.247a0.528,0.528,0,0,0,.49.491A0.86,0.86,0,0,0,468.568,123.478Zm-4.9-12.047a0.485,0.485,0,0,0-.49-0.736h-0.245c0,0.246.245,0.246,0.245,0.491-0.245.245-.489,0.492-0.734,0.245H462.2v0.247a0.756,0.756,0,0,0,.49.247A0.619,0.619,0,0,0,463.672,111.431Zm4.161,0a1.279,1.279,0,0,0-.49-0.982h-0.489V110.7c0.245,0,.489.246,0.245,0.491,0,0.245-.245.245-0.49,0.245h-0.245v-0.245h0v0.492a0.853,0.853,0,0,1,.49.247C467.343,111.925,467.833,111.925,467.833,111.431Zm-2.448-3.687a0.4,0.4,0,0,0-.489-0.49h-0.245c0.245,0,.245.246,0.245,0.49h-0.734v0.246a0.485,0.485,0,0,0,.489.248A0.579,0.579,0,0,0,465.385,107.744Zm0.49,0.984h-0.49v0.248a0.854,0.854,0,0,1,.49.246,1.306,1.306,0,0,1-.735.491,0.241,0.241,0,0,1-.244-0.247h0v0.493h0.489a0.656,0.656,0,0,0,.979-0.246A1.286,1.286,0,0,0,465.875,108.728Zm-6.12,2.458a0.485,0.485,0,0,0-.489-0.737h-0.245c0.245,0,.245.246,0.245,0.492a0.855,0.855,0,0,1-.49.245,0.24,0.24,0,0,0-.245-0.245h0v0.49h0.49C459.51,111.678,459.755,111.431,459.755,111.186Zm6.854,9.832-0.245-.245a1.3,1.3,0,0,0,.49.737c0.489,0.247.979,0.247,0.979,0a1.082,1.082,0,0,0-.245-1.228H467.1a0.905,0.905,0,0,1,.244.736h-0.734Zm2.693-7.374h0.245c0.244,0,.244,0,0.244.492a0.241,0.241,0,0,1-.244.247c-0.245,0-.245,0-0.245-0.247a0.618,0.618,0,0,0,.489.738,0.737,0.737,0,0,0,0-1.474A0.759,0.759,0,0,0,469.3,113.644Zm-0.734,3.195h-0.49a0.492,0.492,0,0,1,0,.984l-0.245-.244a0.782,0.782,0,0,0,.735.735A0.738,0.738,0,0,0,468.568,116.839Zm1.958,0c-0.245,0-.49,0-0.49.248h0a0.855,0.855,0,0,1,.49.245,0.526,0.526,0,0,1-.49.491h-0.245A0.663,0.663,0,1,0,470.526,116.839Zm4.161-5.408c-0.489,0-.489,0-0.489.247a0.853,0.853,0,0,0,.489.247c0.245,0,.245-0.247.245-0.494h-0.245Zm1.469-1.472a0.527,0.527,0,0,0-.489.49h0.489v-0.49Zm-8.813,9.833H466.12a0.488,0.488,0,0,0-.245.49,1.649,1.649,0,0,0,.979,1.721,12.5,12.5,0,0,0,2.448.246V122h0a8.389,8.389,0,0,1-2.2-.246c-0.979-.492-0.979-0.739-0.979-1.229,0-.246,0-0.492.244-0.492a0.461,0.461,0,0,1,.735,0,8.654,8.654,0,0,0,2.448.492v-0.492C468.812,120.282,467.833,119.792,467.343,119.792Zm3.672-6.392h0a0.856,0.856,0,0,1,.49.244c0,0.492-.245.492-0.49,0.492h-0.244a0.624,0.624,0,1,0,1.224-.244,0.527,0.527,0,0,0-.49-0.492h-0.49Z" transform="translate(-437 -97)"/>
  <path id="line" class="cls-2" d="M484.618,116.994v1.052H728v-1.052H484.618Z" transform="translate(-437 -97)"/>
  <path id="frame" class="cls-2" d="M472.782,136.994H441.21a4.21,4.21,0,0,1-4.21-4.21V131.2a0.526,0.526,0,0,1,1.052,0v1.581a3.157,3.157,0,0,0,3.158,3.156h31.572a3.157,3.157,0,0,0,3.158-3.156V114.362a0.526,0.526,0,0,1,1.052,0v18.422A4.21,4.21,0,0,1,472.782,136.994Zm3.684-33.684a0.526,0.526,0,0,1-.526-0.527V101.2a3.157,3.157,0,0,0-3.158-3.157H441.21a3.157,3.157,0,0,0-3.158,3.157v25.79a0.526,0.526,0,1,1-1.052,0V101.2a4.21,4.21,0,0,1,4.21-4.21h31.572a4.21,4.21,0,0,1,4.21,4.21v1.58A0.527,0.527,0,0,1,476.466,103.31Z" transform="translate(-437 -97)"/>
</svg>
